<?xml version="1.0" encoding="UTF-8"?>
<!DOCTYPE svg PUBLIC "-//W3C//DTD SVG 1.1//EN" "http://www.w3.org/Graphics/SVG/1.1/DTD/svg11.dtd">
<!-- Creator: CorelDRAW X8 -->
<svg xmlns="http://www.w3.org/2000/svg" xml:space="preserve" width="124.883mm" height="124.883mm" version="1.1" style="shape-rendering:geometricPrecision; text-rendering:geometricPrecision; image-rendering:optimizeQuality; fill-rule:evenodd; clip-rule:evenodd"
viewBox="0 0 303070 303070"
 xmlns:xlink="http://www.w3.org/1999/xlink">
 <defs>
  <style type="text/css">
   <![CDATA[
    .fil1 {fill:#FEFEFE}
    .fil0 {fill:#6FAB0A;fill-rule:nonzero}
   ]]>
  </style>
 </defs>
 <g id="Capa_x0020_1">
  <metadata id="CorelCorpID_0Corel-Layer"/>
  <circle class="fil0" cx="151535" cy="151535" r="151535"/>
  <g id="_3189571569216">
   <g>
    <path class="fil1" d="M239033 143936c-12706,-5261 -24580,-4156 -33724,2908l0 -8093c1833,385 4183,742 6799,742 4262,0 8026,-909 11192,-2694 9362,-5301 11969,-17591 12070,-18108 411,-1940 -691,-3876 -2554,-4536 -186,-74 -4859,-1712 -10525,-1712 -4261,0 -8025,908 -11192,2697 -2329,1319 -4238,3066 -5790,4960l0 -9236c0,-2193 -1793,-3975 -3974,-3975 -2204,0 -3974,1781 -3974,3975l0 35986c-5929,-4567 -13023,-6566 -20700,-6030l0 -35719c0,-4937 -3236,-11833 -17557,-17397l0 -25268c0,-23452 -85106,-23452 -85106,0l0 25252c-11314,4394 -17558,10505 -17558,17413l0 117527c0,15717 30973,24185 60110,24185 21395,0 40893,-4292 51406,-11208 7607,6791 15885,11208 23723,11208 2615,0 5123,-488 7436,-1452 745,-310 1474,-667 2219,-1118 729,452 1466,808 2181,1118 2320,963 4836,1459 7459,1459l0 0c18978,0 40524,-25512 48744,-49348 8615,-25008 1087,-44520 -20685,-53536zm-24038 -21891c2980,-1684 7886,-1898 11425,-1312 -1179,2997 -3383,7074 -7025,9136 -1963,1103 -4415,1661 -7288,1661 -1490,0 -2933,-159 -4144,-357 1187,-2982 3368,-7044 7032,-9128zm-133057 -30869c108,-531 116,-1070 0,-1628l0 -16286c8129,4642 21418,7025 34604,7025 13183,0 26475,-2383 34605,-7025l0 19606c0,3489 -13141,9912 -34605,9912 -21469,0 -34604,-6423 -34604,-9912l0 -1692zm34604 -38668c21464,0 34605,6423 34605,9920 0,3501 -13141,9919 -34605,9919 -21469,0 -34604,-6418 -34604,-9919 0,-3497 13136,-9920 34604,-9920zm-41943 43501c3472,9667 22787,14719 41943,14719 19167,0 38497,-5060 41948,-14736 7424,3267 10216,6733 10216,9101 0,6780 -19847,16229 -52162,16229 -32319,0 -52162,-9450 -52162,-16229 -2,-2910 3899,-6271 10217,-9084zm-10219 54273c10339,7171 29320,11184 48189,11688l0 45406c-29964,-746 -48189,-9702 -48189,-16190l0 -40904zm0 72329l0 -18977c11068,7684 32044,11728 52162,11728 2193,0 3975,-1793 3975,-3974l-1 -53345c0,-2198 -1780,-3973 -3974,-3973 -32319,0 -52162,-9458 -52162,-16238l0 -20262c11068,7673 32044,11717 52162,11717 20114,0 41090,-4044 52162,-11717l0 24608c-1689,486 -3388,1048 -5104,1767 -21779,9022 -29312,28519 -20674,53512 3936,11410 10929,23161 19219,32351 -9504,5518 -26910,9050 -45612,9050 -32310,-7 -52153,-9469 -52153,-16247zm187825 -27755c-8856,25668 -32351,48643 -45661,43148 -816,-342 -1693,-885 -2771,-1730 -715,-566 -1583,-847 -2454,-847 -869,0 -1737,295 -2453,847 -1071,829 -1963,1389 -2794,1730 -13147,5479 -36778,-17480 -45642,-43148 -9209,-26660 3730,-38404 16214,-43566 12928,-5359 23872,-2793 31447,7762 46,70 133,92 179,154 736,902 1808,1507 3035,1507 1243,0 2312,-606 3042,-1507 63,-62 148,-84 186,-154 7560,-10547 18511,-13106 31443,-7762 12487,5154 25419,16906 16229,43566z"/>
   </g>
   <g>
   </g>
   <g>
   </g>
   <g>
   </g>
   <g>
   </g>
   <g>
   </g>
   <g>
   </g>
   <g>
   </g>
   <g>
   </g>
   <g>
   </g>
   <g>
   </g>
   <g>
   </g>
   <g>
   </g>
   <g>
   </g>
   <g>
   </g>
   <g>
   </g>
  </g>
 </g>
</svg>
