<svg id="icon" xmlns="http://www.w3.org/2000/svg" viewBox="0 0 512 512"><defs><style>.cls-1{fill:#efb9ab;}.cls-2{fill:#ffe2d4;}.cls-3{fill:#fff9f8;}.cls-4{fill:#4d4d4d;}</style></defs><title>arm female</title><path class="cls-1" d="M326.56,102.06l17,13a15.56,15.56,0,0,1,.67,24.17l-8.65,7.42a15.71,15.71,0,0,1-20.95-.47l-13.54-12.71Z"/><path class="cls-2" d="M483.84,303.59c-13.35,2.62-39.67,5.64-63.23-4.46,0,0-43.29-17.45-91.83,13.86A58.23,58.23,0,0,1,305,321.75c-26.93,3.62-84.34,10.27-105.25,4.3,0,0,14.1-52.53,19-176.53A45.77,45.77,0,0,0,267,144.77l5.32,5.32a16.12,16.12,0,0,0,21.84.89l32.18-27.3a16.14,16.14,0,0,0,3.86-19.78c-4.42-8.48-12.53-20-27-30.29a24.11,24.11,0,0,0-22.92-2.74l-74.55,29.7a47.89,47.89,0,0,0-27.2,27.87c-15.56,41.94-50.11,142.08-59.8,227.94a37.5,37.5,0,0,0,26.3,40.05c22.08,6.79,59.09,18,118.15,15.12,10.85-.53,27.25-.29,37.81,2.25,22.6,5.44,47.18,20.53,58.41,50.69A233.09,233.09,0,0,0,483.84,303.59Z"/><path class="cls-1" d="M381.54,425.68c-19.54,10.38-31.9-11-31.9-11-11.07-14.55-30.76-20.89-46.83-23.62a121.94,121.94,0,0,0-34.55-.69c-32.9,3.81-74.84-3.05-98.12-7.78A21.31,21.31,0,0,0,146,395.89l-.28.73c22.16,6.8,59,17.8,117.56,14.93,10.85-.53,27.25-.29,37.81,2.25,22.6,5.44,47.18,20.53,58.41,50.69a232,232,0,0,0,32.58-19.7Z"/><path class="cls-1" d="M189.33,327.94l10.42-1.89s14.1-52.53,19-176.53a10.54,10.54,0,0,0-10.5,9.44c-3.11,29.47-13.45,120.07-27.2,159.26A7.38,7.38,0,0,0,189.33,327.94Z"/><path class="cls-3" d="M144.43,251.25a18.66,18.66,0,0,0,20.53-15c4.56-23.91,12.46-56.82,17.38-76.76a18.64,18.64,0,0,0-7.77-20c-9.49,26.32-23.16,66.77-34.89,111.22Z"/><path class="cls-3" d="M401.91,302.91l.77-7.86c-17.1-2.09-44.53-1-73.9,17.94A58.23,58.23,0,0,1,305,321.75c-2.81.38-6,.79-9.36,1.21l.9,5a15.68,15.68,0,0,0,18.59,12.6,69.39,69.39,0,0,0,22.88-9c14.4-9.18,28.81-14.59,48.24-14.44A15.69,15.69,0,0,0,401.91,302.91Z"/><path class="cls-4" d="M97.48,77.73l-2.26,2a5.83,5.83,0,0,0,7.86,8.61l2.15-1.94a5.83,5.83,0,0,0-7.75-8.71Z"/><path class="cls-4" d="M356.43,409.54l.58.39a5.83,5.83,0,1,0,6.58-9.62l-.73-.5,0,0,0,0-.31-.2a5.83,5.83,0,0,0-6.31,9.8Z"/><path class="cls-4" d="M256,494.55a236.56,236.56,0,0,0,172-73.26,5.82,5.82,0,1,0-8.4-8.07,230.7,230.7,0,0,1-26,23.27,70.36,70.36,0,0,0-10-17.32,5.83,5.83,0,1,0-9.21,7.14,57.5,57.5,0,0,1,9.39,17.29,223.76,223.76,0,0,1-21.19,12.85c-12.82-26.13-32-41.54-60.15-48.32-11.05-2.66-27.63-3-39.46-2.4-58.42,2.86-94.56-8.24-116.15-14.87A31.72,31.72,0,0,1,124.6,357c9.69-85.87,44.82-187,59.47-226.57A42.16,42.16,0,0,1,208,106l74.55-29.71a18.22,18.22,0,0,1,17.38,2.08,81,81,0,0,1,25.17,28.23,10.28,10.28,0,0,1-2.46,12.65l-32.18,27.3a10.37,10.37,0,0,1-13.95-.57l-5.32-5.32a5.82,5.82,0,0,0-7.6-.56,40.21,40.21,0,0,1-24.34,8.39h-.48a5.83,5.83,0,0,0-.06,11.66,50.88,50.88,0,0,0,27.64-7.84l1.92,1.92A22.08,22.08,0,0,0,298,155.43l9.46-8,3.2,3a21.49,21.49,0,0,0,28.72.64l8.66-7.42a21.28,21.28,0,0,0,6.83-21.39,5.83,5.83,0,1,0-11.31,2.8,9.71,9.71,0,0,1-3.11,9.75l-8.65,7.41a9.86,9.86,0,0,1-13.17-.29l-2.23-2.1,13.78-11.69a21.87,21.87,0,0,0,5.26-26.91,92.51,92.51,0,0,0-28.76-32.35,29.84,29.84,0,0,0-28.45-3.41L203.66,95.16a53.83,53.83,0,0,0-30.52,31.25c-14.8,39.92-50.29,142.16-60.12,229.31A43.37,43.37,0,0,0,143.4,402c22.32,6.86,59.68,18.34,120.14,15.37,10.52-.52,26.3-.28,36.17,2.1,24.86,6,41.15,19.07,52.45,42.2A226.07,226.07,0,0,1,256,482.89C130.89,482.89,29.11,381.11,29.11,256a225.83,225.83,0,0,1,38.6-126.65,5.82,5.82,0,1,0-9.66-6.51A237.35,237.35,0,0,0,17.45,256C17.45,387.54,124.46,494.55,256,494.55Z"/><path class="cls-4" d="M256,17.45a238.85,238.85,0,0,0-114.16,29,5.83,5.83,0,1,0,5.59,10.23A227.09,227.09,0,0,1,256,29.11c125.11,0,226.89,101.78,226.89,226.89a228.05,228.05,0,0,1-4,42.56c-13.12,2.16-35.82,3.86-56.11-4.83-1.88-.76-46.67-18.21-97.17,14.36a52.6,52.6,0,0,1-21.4,7.88c-45.62,6.14-80.36,8.11-97.42,5.59,3.75-16.95,13.77-70.4,17.77-171.81a5.83,5.83,0,1,0-11.65-.46C208.12,271,194.26,324,194.12,324.53a5.83,5.83,0,0,0,4,7.12c6.53,1.87,16.19,2.6,27.35,2.6,25.47,0,58.72-3.83,80.27-6.73a64.4,64.4,0,0,0,26.17-9.63c45.24-29.18,84.84-14,86.37-13.4,20.63,8.84,43.11,8.2,57.94,6.24q-2.24,9-5.2,17.83a5.82,5.82,0,0,0,3.66,7.38,5.72,5.72,0,0,0,1.86.31,5.83,5.83,0,0,0,5.52-4A238.19,238.19,0,0,0,494.55,256C494.55,124.46,387.54,17.45,256,17.45Z"/></svg>