<svg id="icon" xmlns="http://www.w3.org/2000/svg" viewBox="0 0 512 512"><defs><style>.cls-1{fill:#ffe2d4;}.cls-2{fill:#efb9ab;}.cls-3{fill:#e89991;}.cls-4{fill:#fff9f8;}.cls-5{fill:#4d4d4d;}</style></defs><title>foot</title><path class="cls-1" d="M256,23.33a233,233,0,0,0-61,8.1c1.59,13.78,4.74,43.68,6.56,78.31,0,0,1.67,5.85-3.77,27.6s-7.46,33.45,4,60.22c0,0,5.61,50.18-11.95,115.42,0,0-11,20.17-10.18,54.46L177,400.76a31.91,31.91,0,0,0,36.78,34.09l.9-.15a36.09,36.09,0,0,0,29.44-35.09,122.52,122.52,0,0,0-2.39-25.31,6.43,6.43,0,0,1,0-2.51s0-.05,0-.08c1.4-7,14.1-5.44,15.63,1.53,1.69,7.73,4.37,21.6,4.46,32.45a18.75,18.75,0,0,0,3.8,11.52c3,3.87,8.25,7.43,17,6.17a17.89,17.89,0,0,0,12.19-13.13S315.13,422,327.7,396.87c0,0,25.13,2.43,25.54-26.75,0,0,26.89,3,23.43-23.07a38,38,0,0,0-4.4-13.07c-4-7.36-12.42-22.69-21.46-38.45,0,0-15.63-39.42-26.61-95.66a123,123,0,0,1-2.26-22.57l-.24-30.39a46.91,46.91,0,0,0-4.49-19.63c-2.5-5.34-5.76-11.89-8.85-17a31.25,31.25,0,0,1-4.42-15.41c-.36-15-.9-44.83-.21-66.61A233.83,233.83,0,0,0,256,23.33Z"/><path class="cls-2" d="M371,331.62c-4.35-8-12-21.85-20.17-36.09,0,0-15.63-39.42-26.61-95.66a123,123,0,0,1-2.26-22.57l-.24-30.39a46.91,46.91,0,0,0-4.49-19.63c-2.5-5.34-5.76-11.89-8.85-17a31.25,31.25,0,0,1-4.42-15.41c-.36-15-.9-44.83-.21-66.61A233.41,233.41,0,0,0,277,24.28V97.57a22.75,22.75,0,0,0,6.6,16c7.72,7.79,19.14,24.39,16.56,53a37.71,37.71,0,0,0,.36,10c3.37,19,15.63,84.48,29.73,115.4l9.05,18A24.5,24.5,0,0,0,352.76,322,69.51,69.51,0,0,1,371,331.62Z"/><path class="cls-2" d="M376.67,347.05a36.26,36.26,0,0,0-2.45-9c-10.06,13.84-30.2,12.41-30.2,12.41l5.12,7.58c-2.41,16-24.72,19.91-24.72,19.91-8.2,14.09-31.55,16.07-31.55,16.07-11,11.94-31.3,5.73-31.3,5.73h0c.16,2,.25,4,.27,5.92a18.75,18.75,0,0,0,3.8,11.52c3,3.87,8.25,7.43,17,6.17a17.89,17.89,0,0,0,12.19-13.13S315.13,422,327.7,396.87c0,0,25.13,2.43,25.54-26.75C353.24,370.12,380.13,373.14,376.67,347.05Z"/><path class="cls-2" d="M213.81,434.85l.9-.15a36.09,36.09,0,0,0,29.44-35.09,118.66,118.66,0,0,0-.53-12.57c-7,15.43-19.66,7-19.66,7s-17-7.58-29.5,9.35c-9,12.16-3.49,23.29.31,28.6A31.31,31.31,0,0,0,213.81,434.85Z"/><path class="cls-3" d="M221.93,386.9c-4-2.33-10.75-4.38-20.8-1.47a12.31,12.31,0,0,0-6.52,4.35,11,11,0,0,0-2.14,7.56,14.4,14.4,0,0,0,12.4,12.85c1.93.29,4.2.55,6.76.71a14.61,14.61,0,0,0,15.57-14.67c0-.16,0-.33,0-.49A10.78,10.78,0,0,0,221.93,386.9Z"/><path class="cls-4" d="M214,387a15,15,0,0,0-.28-2.85,31.49,31.49,0,0,0-12.61,1.24,12.31,12.31,0,0,0-6.52,4.35,11,11,0,0,0-2.14,7.56,12.72,12.72,0,0,0,.56,2.9A14.64,14.64,0,0,0,214,387Z"/><path class="cls-4" d="M201.55,109.74a9.77,9.77,0,0,1,.22,2l7.94-1.48a16,16,0,0,0,13.06-17.08l-5.46-66.61Q206,28.46,195,31.43C196.58,45.21,199.73,75.11,201.55,109.74Z"/><path class="cls-4" d="M238.67,210.89c2.2,12,7,41.75,7,71.74,0,3.93-3.35,7.62-8.54,9.4h0c-8.24,2.82-17.38-1.44-16.46-7.69,2.61-17.69,6.11-48.5,3.13-71.82-.33-2.61,2.2-5.06,5.91-5.73h0C234,206,238.13,207.91,238.67,210.89Z"/><path class="cls-5" d="M231.68,387.62a5.82,5.82,0,1,0-10.53,5c0,.08.07.17.11.25a5.81,5.81,0,0,0,5.4,3.63,5.9,5.9,0,0,0,2.2-.43,5.82,5.82,0,0,0,3.19-7.59A7.91,7.91,0,0,0,231.68,387.62Z"/><path class="cls-5" d="M219.82,403.26a6.58,6.58,0,0,1-4.62,2,62.15,62.15,0,0,1-11.88-1.17,6.93,6.93,0,0,1-5.6-7.69l0-.16a7,7,0,0,1,6.34-6.19c1.69-.17,3.54-.26,5.53-.29a5.83,5.83,0,0,0-.08-11.66h-.09c-2.3,0-4.48.15-6.48.34a18.66,18.66,0,0,0-16.79,16.38l0,.16a18.6,18.6,0,0,0,15,20.57,74.82,74.82,0,0,0,13.59,1.37h.56a18.21,18.21,0,0,0,12.77-5.41,5.83,5.83,0,1,0-8.27-8.22Z"/><path class="cls-5" d="M256,17.45a238.85,238.85,0,0,0-114.16,29,5.83,5.83,0,1,0,5.59,10.23A225.2,225.2,0,0,1,190,38.93c1.67,15.37,4.2,41.52,5.76,71.12a2.77,2.77,0,0,0,.16,1.15c.12,1.09.53,7.58-3.76,24.73-5.53,22.14-7.89,35.1,4,63.08.59,6.65,4,53.27-11.71,111.85-2,3.94-11.26,24.21-10.54,56.42l-2.61,33a37.6,37.6,0,0,0,43.52,40.29l1-.17A41.85,41.85,0,0,0,250,399.69a127.69,127.69,0,0,0-2.5-26.52.13.13,0,0,0,0-.06,4.72,4.72,0,0,1,2.83.27c.83.34,1.33.82,1.39,1.11,1.58,7.2,4.25,20.83,4.33,31.24a24.48,24.48,0,0,0,5,15.08c5.25,6.7,13.23,9.66,22.45,8.34a4,4,0,0,0,.5-.1,23.11,23.11,0,0,0,14.13-11.31,27.93,27.93,0,0,0,15.34,0c6.78-2,12.47-6.74,17-14,.1-.15.2-.3.29-.45s.29-.43.42-.66c4.48-.31,11.88-1.71,18-7.19,5.24-4.69,8.42-11.24,9.49-19.52,5.14-.38,12.45-2,17.82-7.44,5.2-5.32,7.21-12.8,6-22.24a43.78,43.78,0,0,0-5.06-15.09c-4.15-7.61-12.4-22.64-21.31-38.18-1.61-4.15-16-42.06-26.16-94.26a116.88,116.88,0,0,1-2.15-21.5l-.25-30.39a52.32,52.32,0,0,0-5-22.06c-3.39-7.21-6.47-13.12-9.14-17.56a25.38,25.38,0,0,1-3.58-12.54c-.33-13.61-.79-38.68-.39-59.24C408.81,59.53,482.89,149.27,482.89,256c0,125.11-101.78,226.89-226.89,226.89S29.11,381.11,29.11,256a225.83,225.83,0,0,1,38.6-126.65,5.82,5.82,0,1,0-9.66-6.51A237.35,237.35,0,0,0,17.45,256c0,131.54,107,238.55,238.55,238.55S494.55,387.54,494.55,256,387.54,17.45,256,17.45ZM298.11,95a37.29,37.29,0,0,0,5.25,18.27c2.44,4,5.41,9.75,8.58,16.51A40.92,40.92,0,0,1,315.87,147l.24,30.4A128.71,128.71,0,0,0,318.48,201c11,56.13,26.26,95.07,26.91,96.7a5.17,5.17,0,0,0,.36.75c8.55,14.9,16.51,29.37,20.83,37.28a9.23,9.23,0,0,1-5.17,4.75,5.83,5.83,0,0,0,1.7,11.4,5.76,5.76,0,0,0,1.64-.24,19.63,19.63,0,0,0,6.19-3.28c.63,5.41-.28,9.45-2.75,12-2.63,2.71-6.91,3.7-10.25,4-3.76-13.34-13.8-22.26-14.28-22.67a5.83,5.83,0,1,0-7.66,8.78,42.82,42.82,0,0,1,7.58,9.67c-1.39,3.08-6,4-6.19,4a5.83,5.83,0,1,0,1.88,11.5,22.45,22.45,0,0,0,8-3c-.48,6.31-2.42,11.07-5.81,14.15a17.49,17.49,0,0,1-9,4.08,51.31,51.31,0,0,0-13-33.93,5.83,5.83,0,0,0-8.3,8.19,37.41,37.41,0,0,1,7.33,12.66,15.84,15.84,0,0,1-8.79,4.47,5.83,5.83,0,0,0,.54,11.63l.51,0a27.39,27.39,0,0,0,10-3.34,42.09,42.09,0,0,1-.62,7.8c-2.87,4.32-6.19,7.11-9.93,8.26a16.33,16.33,0,0,1-9.2-.07,57.44,57.44,0,0,0-2.63-20.81A152.19,152.19,0,0,1,293,365a5.83,5.83,0,1,0-11.48,2,160.86,160.86,0,0,0,5.84,22.5c.14.41.26.83.38,1.24-4.46,3.28-10.53,3.24-10.68,3.25a5.83,5.83,0,0,0-.32,11.65h.46a32.64,32.64,0,0,0,12.22-2.53,51.15,51.15,0,0,1-.32,6,12.07,12.07,0,0,1-7.63,8.61c-5,.63-8.66-.69-11.29-4a13.06,13.06,0,0,1-2.55-8c-.1-11.47-2.92-26-4.6-33.65-1.54-7-8.54-10.65-14.72-10.65h-.14c-6.29.06-11.06,3.67-12.2,9.35a12.55,12.55,0,0,0,0,4.73,116.17,116.17,0,0,1,2.28,24.1A30.18,30.18,0,0,1,213.67,429l-.8.14a25.66,25.66,0,0,1-21.64-6.53,26,26,0,0,1-8.39-21.35l2.63-33.32c0-.2,0-.4,0-.6-.78-32.1,9.37-51.35,9.46-51.53a5.73,5.73,0,0,0,.52-1.28C213.11,249,207.82,199,207.58,196.91a5.91,5.91,0,0,0-.43-1.65c-10.81-25.22-9-35.55-3.71-56.51,4.75-19,4.4-26.94,3.91-29.74-1.64-30.93-4.33-58.09-6-73.22A227.09,227.09,0,0,1,297.77,33C297.3,54.16,297.78,80.77,298.11,95Z"/><path class="cls-5" d="M103.09,88.37l2.14-1.93a5.83,5.83,0,1,0-7.75-8.7c-.76.67-1.51,1.35-2.26,2a5.83,5.83,0,1,0,7.87,8.6Z"/></svg>