<svg id="icon" xmlns="http://www.w3.org/2000/svg" viewBox="0 0 512 512"><defs><style>.cls-1{fill:#ffe2d4;}.cls-2{fill:#efb9ab;}.cls-3{fill:#fff9f8;}.cls-4{fill:#4d4d4d;}</style></defs><title>leg</title><path class="cls-1" d="M302,116.93,168.67,40.13A233.45,233.45,0,0,0,39.19,170.59c31.6,12.8,105.27,40,174.88,46.37,0,0,30.33,3.37,37.91,16.86a29.78,29.78,0,0,1,0,26.12s-30.33,67.4,15.17,151.66c0,0,9.42,42.11,7.1,76.39a231.23,231.23,0,0,0,67.8-15.81c2-43.65,7.86-165,14-253.68A108.57,108.57,0,0,0,302,116.93Z"/><path class="cls-2" d="M280.91,392.67c-18.09-31.18-24.36-91.45-13.42-128.61,12.26-41.62-16-59.51-16-59.51h0c-8.34-13-25.1-14.75-25.1-14.75s-58.23,2-112.61-28.21C85.63,146,79.46,122.44,80.06,103.4a232.42,232.42,0,0,0-40.87,67.19c31.6,12.8,105.27,40,174.88,46.37,0,0,14.45,1.61,25.9,7h0c.59.28,1.17.58,1.74.88l.39.21c.45.24.89.49,1.32.74l.45.26c.43.27.86.54,1.28.82l.33.22c.53.36,1,.73,1.53,1.12l.07.06c.45.35.87.72,1.28,1.09.14.12.26.25.39.37.3.28.59.57.86.87.14.14.27.29.4.44s.51.61.75.92l.32.42a13.86,13.86,0,0,1,.9,1.4l0,.07.06.12.07.13.22.45.07.15c.18.39.39.89.62,1.49l.13.36c.07.18.13.37.2.56A30.23,30.23,0,0,1,252,259.94s-30.33,67.4,15.17,151.66c0,0,9.42,42.11,7.1,76.39l1.91.33c6.92-24.63,9.79-52.55,11-69.66A45.67,45.67,0,0,0,280.91,392.67Z"/><path class="cls-3" d="M356.29,208.66a108.58,108.58,0,0,0-42.08-83.51l-6.72,7.45a13.1,13.1,0,0,0,.74,18.39c8.34,7.69,19,21.95,21.7,45.92A13.18,13.18,0,0,0,343,208.66Z"/><path class="cls-3" d="M291.94,284.24c-1.4-4.7-9.34-5.7-11.88-1.52-2.1,3.46-3.69,8.51-3.33,15.77A93.89,93.89,0,0,0,278.64,313c1.19,5.63,11,6.3,12.49.84C293.48,305,294.89,294.12,291.94,284.24Z"/><path class="cls-4" d="M246.31,206.6a5.83,5.83,0,0,0,5.46,3.78,5.92,5.92,0,0,0,2-.37,5.83,5.83,0,0,0,3.41-7.5C250.35,184.18,227.39,184,226.41,184a5.83,5.83,0,0,0,0,11.66C226.57,195.63,242.31,195.93,246.31,206.6Z"/><path class="cls-4" d="M256,17.45a238.85,238.85,0,0,0-114.16,29,5.83,5.83,0,1,0,5.59,10.23,223.56,223.56,0,0,1,20.95-10l.08.06L299.05,122a103.35,103.35,0,0,1,51.2,96.11c-6,86-11.61,202.29-13.85,250.07a224.94,224.94,0,0,1-56,13.42c.88-33.14-7.17-69.64-7.54-71.25a5.62,5.62,0,0,0-.55-1.5C228.8,328.32,257,263,257.25,262.42a35.62,35.62,0,0,0-.19-31.46c-8.79-15.64-38.94-19.41-42.46-19.8-64-5.87-130.94-29.21-167.55-43.7a226.47,226.47,0,0,1,20.66-38.11,5.82,5.82,0,1,0-9.66-6.51A237.35,237.35,0,0,0,17.45,256c0,131.54,107,238.55,238.55,238.55S494.55,387.54,494.55,256,387.54,17.45,256,17.45ZM29.11,256a226.6,226.6,0,0,1,13.68-77.69C80,193,148.15,216.77,213.42,222.76c7.1.79,28.49,5,33.5,14a24.31,24.31,0,0,1-.25,20.83c-1.29,2.85-30.81,70.64,15,156.09,1.17,5.49,8.06,39.41,7.06,68.9q-6.3.36-12.68.36C130.89,482.89,29.11,381.11,29.11,256ZM348.3,463.25c2.39-50.67,7.84-161.63,13.58-244.35a115.06,115.06,0,0,0-57-107L182.46,41.35A227.73,227.73,0,0,1,256,29.11c125.11,0,226.89,101.78,226.89,226.89C482.89,348.26,427.54,427.82,348.3,463.25Z"/><path class="cls-4" d="M103.08,88.38l2.15-1.94a5.83,5.83,0,0,0-7.75-8.71l-2.26,2a5.83,5.83,0,0,0,7.86,8.61Z"/></svg>