<svg id="icon" xmlns="http://www.w3.org/2000/svg" viewBox="0 0 512 512"><defs><style>.cls-1{fill:#ffe2d4;}.cls-2{fill:#efb9ab;}.cls-3{fill:#999;}.cls-4{fill:gray;}.cls-5{fill:#b5b5b5;}.cls-6{fill:#fff9f8;}.cls-7{fill:#4d4d4d;}</style></defs><title>back female</title><path class="cls-1" d="M403.54,261s-.94-26.53-23.48-40.09c-6.6-4-17.66-7.56-25.36-7.89-11.27-.49-35.36-2.68-50.91-12.29a22.72,22.72,0,0,1-10.66-19.08l-.45-36.25h-81l-.44,36.25a22.73,22.73,0,0,1-10.67,19.08c-15.54,9.61-39.64,11.8-50.91,12.29-7.69.33-18.76,3.92-25.36,7.89C101.81,234.51,100.86,261,100.86,261c-2.16,35.56-.47,91.92-.47,91.92,2.14,34.07-1.48,57.5-5,71.42a233.82,233.82,0,0,0,43.73,32.88C137.88,406.92,154.4,353.9,154.4,353.9c4.5,18.35,12.59,53.15,16.62,70.55a36.05,36.05,0,0,1-1.15,20.21c-2.57,7.2-5.48,15.72-8.29,24.09a233.24,233.24,0,0,0,182.19,2.83c-3.1-9.26-6.38-18.91-9.23-26.92a36,36,0,0,1-1.15-20.21c4-17.4,12.12-52.2,16.62-70.55,0,0,17.47,56.09,15.16,107.66a233,233,0,0,0,45.43-31.63c-3.9-12.77-9.05-37.86-6.58-77C404,353,405.7,296.6,403.54,261Z"/><path class="cls-2" d="M293.13,181.69l-.45-36.25h-81l-.44,36.25a22.73,22.73,0,0,1-10.67,19.08c-9.83,6.08-23.09,9.18-34.35,10.77l4.5,4.43s72,3.39,127-20.68A23,23,0,0,1,293.13,181.69Z"/><path class="cls-3" d="M157.6,45.05c-9.19,77.89,5.26,165.72,5.26,165.72C330.32,200.38,334.09,78.36,330.15,35.35a233.49,233.49,0,0,0-172.55,9.7Z"/><path class="cls-4" d="M330.15,35.35q-6.45-2.18-13.06-4c-4.16,21-19.07,78.47-62.57,116.11A59.66,59.66,0,0,1,244,154.79a5.32,5.32,0,0,1-7.57-6.16c8.7-33.09-2.39-69.72-2.39-69.72,2,26.39-11.31,61.46-18.91,79.05a6.13,6.13,0,0,1-6.31,3.64l-.19,0a6.26,6.26,0,0,1-5.52-5.58L194,66.36c-1.95,21.19-4.82,67.63-6.09,89A59.15,59.15,0,0,1,161,127.36a157.48,157.48,0,0,1-6.36-16.06c.41,27.62,2.54,52.86,4.53,71h0c0,.33.08.63.11,1,.07.66.15,1.32.22,2,0,.38.09.75.13,1.13.08.68.16,1.35.23,2,0,.29.07.57.1.85.09.71.17,1.42.26,2.1,0,.21.05.41.07.61.09.74.18,1.46.27,2.15,0,.14,0,.28.05.42.09.73.18,1.45.27,2.14,0,.09,0,.18,0,.27.09.73.18,1.43.27,2.11l0,.08q.13,1.08.27,2.07v.06c.65,4.74,1.14,7.87,1.32,9,0,.1,0,.16,0,.23s0,.28,0,.28c2.35-.14,4.65-.32,6.93-.5l2-.18c1.72-.15,3.42-.32,5.11-.49l1.79-.19c2.17-.24,4.32-.5,6.43-.78l1.18-.17c1.74-.24,3.45-.49,5.15-.76l2-.31c1.57-.26,3.11-.53,4.64-.81l1.53-.27q2.9-.56,5.71-1.15l1.72-.38c1.36-.3,2.7-.6,4-.92l2-.48c1.4-.35,2.79-.71,4.16-1.08l1.34-.35q2.52-.7,5-1.44l2-.63c1.05-.33,2.09-.66,3.12-1l2.09-.69c1.23-.43,2.45-.86,3.65-1.3.89-.32,1.76-.65,2.63-1s1.89-.72,2.82-1.1c.76-.3,1.5-.61,2.24-.92s1.54-.65,2.3-1l2.23-1c1-.46,2-.93,3-1.41s2-1,3-1.48c.58-.29,1.17-.58,1.74-.88q1.22-.62,2.4-1.26l1.45-.79c1.86-1,3.68-2.07,5.45-3.14l.07,0,2.52-1.57,1-.65c.84-.54,1.68-1.09,2.5-1.64l.45-.31q4.14-2.82,7.92-5.81l.46-.36q5.25-4.19,9.85-8.64h0C332,121.72,332.65,62.63,330.15,35.35Z"/><path class="cls-5" d="M157.6,45.05a469,469,0,0,0-3,47.89H159a12.85,12.85,0,0,0,12.87-12.47,429.55,429.55,0,0,1,3.84-42.94C169.53,39.79,163.49,42.3,157.6,45.05Z"/><path class="cls-2" d="M256,488.72a232.91,232.91,0,0,0,53.9-6.3c-9.28-33.27-2.66-87.55-2.66-87.55s6.47-38.85-11-72.53-44-30.56-44-30.56-26.54-3.12-44,30.56-11,72.53-11,72.53,6.39,52.37-2.18,85.76A233,233,0,0,0,256,488.72Z"/><path class="cls-2" d="M130.45,298.94l5.48,48.28a37.58,37.58,0,0,1-.79,13c-3.58,14.93-12.3,53.36-15.15,84.58q9.23,6.65,19.1,12.43C137.88,406.92,154.4,353.9,154.4,353.9l-18.43-56A2.83,2.83,0,0,0,130.45,298.94Z"/><path class="cls-2" d="M365.17,461.56c6.76-3.59,13.3-7.53,19.65-11.76-2.31-32-11.78-73.82-15.55-89.55a37.82,37.82,0,0,1-.8-13L374,298.94a2.83,2.83,0,0,0-5.51-1L350,353.9S367.48,410,365.17,461.56Z"/><path class="cls-6" d="M122,261.86c.81-6.11,4-18.41,16.46-25a10.22,10.22,0,0,1,11.16,1l.25.2a6.93,6.93,0,0,1-.57,11.28,37.87,37.87,0,0,0-14.2,16.5,6.8,6.8,0,0,1-10.88,2.09l-.1-.1A6.89,6.89,0,0,1,122,261.86Z"/><path class="cls-6" d="M382.63,261.86c-.81-6.11-4-18.41-16.45-25a10.22,10.22,0,0,0-11.16,1l-.26.2a6.92,6.92,0,0,0,.58,11.28,37.87,37.87,0,0,1,14.2,16.5,6.79,6.79,0,0,0,10.87,2.09l.11-.1A6.91,6.91,0,0,0,382.63,261.86Z"/><path class="cls-7" d="M97.48,77.73c-.75.68-1.51,1.35-2.26,2a5.83,5.83,0,0,0,7.86,8.61l2.15-1.94a5.83,5.83,0,0,0-7.75-8.71Z"/><path class="cls-7" d="M280.07,279.08a5.83,5.83,0,0,0-4.64,6.81c.27,1.44,7,35.58,39.36,62.14a5.83,5.83,0,0,0,7.4-9c-28.86-23.72-35.22-54.85-35.31-55.31A5.84,5.84,0,0,0,280.07,279.08Z"/><path class="cls-7" d="M224.33,279.08a5.83,5.83,0,0,0-6.81,4.65c-.05.31-6.21,31.39-35.31,55.3a5.83,5.83,0,0,0,3.71,10.33,5.74,5.74,0,0,0,3.69-1.33c32.33-26.56,39.09-60.7,39.37-62.14A5.84,5.84,0,0,0,224.33,279.08Z"/><path class="cls-7" d="M252.2,352.39a5.83,5.83,0,0,0-5.83,5.83v83.07a5.83,5.83,0,0,0,11.66,0V358.22A5.83,5.83,0,0,0,252.2,352.39Z"/><path class="cls-7" d="M252.2,326.66a5.83,5.83,0,0,0-5.83,5.83v.27a5.83,5.83,0,0,0,11.66,0v-.27A5.83,5.83,0,0,0,252.2,326.66Z"/><path class="cls-7" d="M252.2,236a5.83,5.83,0,0,0-5.83,5.83v66.87a5.83,5.83,0,0,0,11.66,0V241.81A5.83,5.83,0,0,0,252.2,236Z"/><path class="cls-7" d="M280.59,104.89a5.84,5.84,0,0,0,5.66-4.44c.19-.79.39-1.59.57-2.38a5.83,5.83,0,1,0-11.34-2.67c-.18.75-.36,1.5-.55,2.26a5.83,5.83,0,0,0,4.26,7.06A6.16,6.16,0,0,0,280.59,104.89Z"/><path class="cls-7" d="M287.27,19.5l-.14,0a240.43,240.43,0,0,0-31.13-2q-10.26,0-20.54.94c-.17,0-.34,0-.51,0a5.94,5.94,0,0,0-1,.17A239.89,239.89,0,0,0,197.32,25a5.75,5.75,0,0,0-3.17.84,266.47,266.47,0,0,0-39.27,14.05c-10.42,4.67-24.47,13-25.06,13.33a5.83,5.83,0,0,0,5.94,10c.1-.06,7.1-4.2,14.66-8.17-4.42,50.64.17,104.14,3.46,132.61a5.84,5.84,0,0,0,5.79,5.16c.22,0,.44,0,.67,0a5.83,5.83,0,0,0,5.12-6.46c-3.4-29.32-8.18-85.59-2.77-137.14A255.38,255.38,0,0,1,190.48,39c-2.08,21.31-7.12,77.23-7.63,123.61a5.84,5.84,0,0,0,5.77,5.89h.06a5.83,5.83,0,0,0,5.83-5.76c.54-49.68,6.34-110.55,8-127a226.89,226.89,0,0,1,27.23-5c.08,3.06.15,7.17.13,12.07a5.84,5.84,0,0,0,5.81,5.85h0a5.83,5.83,0,0,0,5.83-5.81c0-5.49-.07-10-.16-13.21,4.88-.33,9.76-.51,14.63-.51a227.66,227.66,0,0,1,25.18,1.4,232.37,232.37,0,0,1-1.1,37.81,5.82,5.82,0,0,0,5.16,6.42c.22,0,.43,0,.64,0a5.84,5.84,0,0,0,5.79-5.2,247,247,0,0,0,1.27-37.45,224.49,224.49,0,0,1,31.72,7.6c1.9,26.77-.32,74.57-32.65,112-16,18.52-37.53,32.32-64.36,41.32,20.83-15.13,37-35.72,48.19-61.56a5.82,5.82,0,1,0-10.68-4.64c-13.57,31.22-34.9,54.11-63.53,68.29,25.27-29.65,34.87-77.07,38.25-115.73a5.83,5.83,0,0,0-11.61-1c-4,46-17,105-55.69,125.77-1.5.14-3,.28-4.53.4a5.82,5.82,0,0,0-2.17-.14l-15.08,2-.15,0c-9.11,1.44-21.71,4.94-29.31,9.52-25,15-26.26,43.67-26.3,44.73-2.15,35.41-.49,91.87-.48,92.44,0,.06,0,.13,0,.19,1.64,26-.16,45.61-2.64,59.28A226.8,226.8,0,0,1,67.71,129.35a5.82,5.82,0,1,0-9.66-6.51,238.76,238.76,0,0,0-7.76,254A240.15,240.15,0,0,0,91,428.2c.12.13.24.27.37.4l1.33,1.23,1.87,1.73q1.77,1.63,3.57,3.22c.69.62,1.4,1.23,2.1,1.84,1.13,1,2.26,1.93,3.41,2.88.8.66,1.6,1.33,2.41,2,1,.85,2.1,1.68,3.16,2.51s1.84,1.44,2.77,2.15l2.86,2.12c1,.77,2.11,1.55,3.17,2.31.8.57,1.61,1.12,2.42,1.67,1.23.86,2.46,1.71,3.71,2.54.45.31.92.6,1.38.9,3.62,2.37,7.28,4.66,11,6.83a5.75,5.75,0,0,0,2.92.79,5.8,5.8,0,0,0,5.46-7.8c-.47-28.56,4.82-58.09,9.27-77.56,3.94,16.65,8.33,35.57,11.17,47.83a30.18,30.18,0,0,1-1,16.94c-2.31,6.48-5.11,14.62-8.33,24.19a5.83,5.83,0,0,0,3.16,7.18l.17.07a1.48,1.48,0,0,0,.13.08,236,236,0,0,0,70.86,19l.61.07c1.27.13,2.54.24,3.81.35l2.43.22,1.42.09c5.75.41,11.54.63,17.36.63q7.61,0,15.14-.49l2.23-.13,1.3-.11a236.49,236.49,0,0,0,71-16.69,1.4,1.4,0,0,1,.17-.09L346,477a5.83,5.83,0,0,0,3.33-7.25c-3.63-10.86-6.75-20-9.27-27a30.18,30.18,0,0,1-1-16.94c2.84-12.26,7.24-31.18,11.18-47.83,4.68,20.51,10.3,52.2,9.14,82.16a5.82,5.82,0,0,0,8.33,6.73c4.06-2.16,8-4.45,11.92-6.81l.74-.44c1.89-1.16,3.76-2.35,5.62-3.55l.37-.24A238.15,238.15,0,0,0,494.55,256C494.55,135.06,404.08,34.87,287.27,19.5ZM413.78,419.1c-3-13.37-5.88-35.13-3.95-65.78a1.21,1.21,0,0,0,0-.19c0-.57,1.67-57-.47-92.29-.05-1.21-1.35-29.86-26.3-44.88-7.67-4.61-19.75-8.36-28.12-8.72-9.58-.42-33.44-2.37-48.09-11.43a16.63,16.63,0,0,1-7.39-10.21,5.83,5.83,0,0,0-11.31,2.82,28.22,28.22,0,0,0,12.57,17.3c16.37,10.13,40.68,12.59,53.72,13.16,6.45.28,16.6,3.45,22.61,7.07,19.44,11.7,20.65,35.09,20.67,35.45,2.08,34.2.54,88.66.47,91.29C396,388.44,399.85,412.94,404,428a228,228,0,0,1-24,18.08l-.52.34c-2.21,1.43-4.44,2.81-6.69,4.17l-1.51.9c-.06-44.56-12.51-88.81-15.16-97.74,3.93-16,9.75-33.81,12.93-43.15a5.83,5.83,0,1,0-11-3.76c-3.34,9.83-9.56,28.85-13.6,45.72h0c-4.46,18.17-12.33,52-16.63,70.59a41.71,41.71,0,0,0,1.34,23.47c2.08,5.84,4.57,13.08,7.44,21.58q-9.6,3.65-19.44,6.39l-.11,0c-1.5.42-3,.82-4.52,1.21l-.62.16c-1.39.35-2.77.68-4.16,1l-1,.23c-1.28.3-2.57.58-3.87.85l-1.36.28c-1.2.25-2.4.48-3.61.7l-1.67.31c-1.12.2-2.24.39-3.37.57l-2,.31-3.14.47-2.23.29-2.93.36-2.52.28-2.68.27c-.95.09-1.91.16-2.86.24l-2.38.18c-1.11.08-2.21.14-3.31.2l-2,.11c-1.38.07-2.76.11-4.14.15l-1.18,0c-1.8,0-3.61.06-5.42.06-2,0-3.92,0-5.88-.07l-1.29-.05c-1.5,0-3-.1-4.49-.17l-2.07-.13c-1.23-.07-2.45-.14-3.67-.23-.83-.06-1.66-.14-2.48-.21-1.08-.1-2.15-.19-3.22-.3s-1.83-.19-2.75-.3l-2.91-.34c-1-.12-2-.26-3-.4s-1.78-.24-2.66-.38l-3.14-.5c-.81-.14-1.62-.27-2.43-.42-1.11-.19-2.21-.4-3.31-.61l-2.21-.44c-1.16-.23-2.32-.48-3.48-.74l-2-.44c-1.22-.28-2.44-.57-3.65-.87l-1.76-.44c-1.28-.33-2.55-.67-3.82-1l-1.51-.42c-1.35-.38-2.69-.77-4-1.17l-1.23-.38c-1.42-.44-2.84-.89-4.25-1.36l-.91-.31q-2.26-.75-4.53-1.56l-.49-.18q-5.07-1.84-10.07-3.92c2.48-7.33,4.67-13.67,6.54-18.92a41.8,41.8,0,0,0,1.34-23.47c-4.3-18.57-12.18-52.42-16.64-70.59h0c-4-16.86-10.25-35.88-13.6-45.72a5.83,5.83,0,0,0-11,3.75c3.18,9.36,9,27.14,12.93,43.16-2.57,8.63-14.24,50.13-15.11,93.08-.75-.49-1.51-1-2.25-1.47l-1.84-1.21c-1.71-1.15-3.39-2.33-5.06-3.52l-1.47-1.07a226.16,226.16,0,0,1-20.8-17.16c3.31-14.41,6.4-37.43,4.38-69.7-.08-2.63-1.61-57.1.47-91.44,0-.23,1.07-23.51,20.67-35.3,5.93-3.57,17.07-6.72,25-8l10.41-1.36h.42q6-.37,11.71-.93l.14,0c3.05-.29,6.05-.64,9-1l.14,0c51.4-6.56,90.57-25.1,116.61-55.25C333.92,121,337.94,73.22,336.57,43.9,422,76.47,482.89,159.25,482.89,256A226.49,226.49,0,0,1,413.78,419.1Z"/></svg>