<svg id="icon" xmlns="http://www.w3.org/2000/svg" viewBox="0 0 512 512"><defs><style>.cls-1{fill:#ffe2d4;}.cls-2{fill:#efb9ab;}.cls-3{fill:#fff9f8;}.cls-4{fill:#4d4d4d;}</style></defs><title>shoulder male</title><path class="cls-1" d="M432.14,408.1C417.25,344.85,419.75,237.76,421,203.54a91.67,91.67,0,0,0-5.74-36.17,97.14,97.14,0,0,0-24.11-36c-19.72-18.73-46.21-28.65-73.41-28.65h-35C240.07,102,201.2,65.4,201.2,65.4V29.79C99.12,54.43,23.28,146.35,23.28,256c0,128.53,104.19,232.72,232.72,232.72a234,234,0,0,0,43.54-4.08c-13.18-81.1,3.79-150.95,3.79-150.95,18.29,13.71,23.63,44.2,23.63,44.2l12.46,95.41A233.11,233.11,0,0,0,432.14,408.1Z"/><path class="cls-2" d="M327,377.89l12.46,95.41a231.25,231.25,0,0,0,29.38-13.74c-5.35-36.62-17.5-119.46-21.15-141.19-2.34-13.93.16-28.56,3.28-39.78,2.26-8.13-7-14.42-13.87-9.47-29.9,21.69-33.73,64.57-33.73,64.57C321.62,347.4,327,377.89,327,377.89Z"/><path class="cls-2" d="M263.4,334.32A30.18,30.18,0,0,0,232,319.42l-12.47,2.14A122.63,122.63,0,0,1,203,322.88c-35.54.26-64.26-29-64.26-64.57V211.94c0-26.58,14.12-38.91,19.9-42.85,42.77,6.72,77.5-11.07,77.5-11.07-31.17,2-64.23-6.25-80.76-11.18a23.14,23.14,0,0,0-20.24,3.43L116.6,163.72a10.38,10.38,0,0,1-16.07-5.55C94.66,137.72,97.1,103.8,99.3,84l-.12.12h0l-.49.47q-2.1,1.92-4.16,3.9c-.51.49-1,1-1.51,1.49-1,1-2,2-3,3l-1.79,1.86c-.88.92-1.76,1.84-2.63,2.77-.64.69-1.27,1.39-1.9,2.08l-2.4,2.67c-.65.74-1.29,1.49-1.93,2.24s-1.49,1.74-2.22,2.62-1.31,1.58-2,2.38-1.39,1.73-2.08,2.6-1.29,1.64-1.92,2.47-1.33,1.76-2,2.64l-1.86,2.52c-.23.32-.47.63-.69,1v0A232.45,232.45,0,0,0,39,171.7c15.74-5.92,31.59-3.6,42.06-.65,30.77,13.6,31.4,40.89,31.4,40.89v47.33c0,35.58-15.2,43.71-22.06,45.56C82,307.68,56,315.37,30.16,312.26a233,233,0,0,0,93.68,135.3l20.19-.87V417.61c0-24.41.6-38.84.6-38.84v-.19a12.48,12.48,0,0,1,14.84-12.14c23.79,4.5,49.38,2.11,62.65.26a30.28,30.28,0,0,0,15.62-7.09l26.84-23.19Z"/><path class="cls-3" d="M391.16,131.4c-19.72-18.73-46.21-28.65-73.41-28.65h-1.34c-.05,1.72-.1,3.56-.16,5.46A25.6,25.6,0,0,0,336.46,134c17.23,3.76,40.42,14.49,50.79,44.49a25.37,25.37,0,0,0,25.91,16.77l7.77-.58a89.15,89.15,0,0,0-5.66-27.27A97.14,97.14,0,0,0,391.16,131.4Z"/><path class="cls-3" d="M239.66,187.55H256.5a16.38,16.38,0,0,1,16.38,16.38v19.61c0,15.2-18.91,22.2-28.81,10.67L227.24,214.6A16.38,16.38,0,0,1,239.66,187.55Z"/><path class="cls-3" d="M63.13,196.77H74a10.62,10.62,0,0,1,10.62,10.61V220.1A10.62,10.62,0,0,1,66,227L55.08,214.3A10.61,10.61,0,0,1,63.13,196.77Z"/><path class="cls-4" d="M324.08,351.13a5.83,5.83,0,0,0-10.47,5.14,97,97,0,0,1,7.59,22.52l12.45,95.27a5.82,5.82,0,0,0,5.77,5.07,4.93,4.93,0,0,0,.76-.05,5.82,5.82,0,0,0,5-6.53l-12.46-95.41c0-.09,0-.17,0-.25A106.64,106.64,0,0,0,324.08,351.13Z"/><path class="cls-4" d="M116.44,449.34a5.79,5.79,0,0,0,1.69,1.23,237.29,237.29,0,0,0,137.87,44,240.65,240.65,0,0,0,44.41-4.15h.07l.09,0c3.52-.66,7-1.38,10.5-2.2a5.83,5.83,0,1,0-2.68-11.34c-1.34.31-2.68.59-4,.88-11.08-76.37,4.45-142,4.61-142.64a1.25,1.25,0,0,0,0-.19,2,2,0,0,0,.06-.23c5.92-35.48,22.34-51.45,22.6-51.71a5.83,5.83,0,0,0-7.95-8.52c-.79.74-19.42,18.43-26.1,58.07-1.12,4.67-16.12,69.77-4.72,147.4a228.52,228.52,0,0,1-36.91,3A225.5,225.5,0,0,1,141.14,451.6a67,67,0,0,0,18.45-6.15,5.83,5.83,0,0,0-5.54-10.25c-.16.08-15.69,8.26-30.63,4.81A229.16,229.16,0,0,1,78,396.6a52.88,52.88,0,0,0,4.7-5.9c4.72-6.9,10.45-11.54,17.05-13.79a5.83,5.83,0,0,0-3.78-11c-9,3.09-16.72,9.22-22.89,18.24-.7,1-1.45,2-2.23,2.95a226.77,226.77,0,0,1-3.18-257.72,5.82,5.82,0,1,0-9.66-6.51A237.35,237.35,0,0,0,17.45,256C17.45,335.46,56.52,406,116.44,449.34Z"/><path class="cls-4" d="M256,17.45A239.09,239.09,0,0,0,200.41,24a5.79,5.79,0,0,0-1.11.26,237.38,237.38,0,0,0-57.46,22.19,5.83,5.83,0,1,0,5.59,10.23,225.91,225.91,0,0,1,47.94-19.36V98.28a5.83,5.83,0,0,0,11.66,0V34.45a227.73,227.73,0,0,1,49-5.34c125.11,0,226.89,101.78,226.89,226.89a227.54,227.54,0,0,1-47.58,138.87c-12-63.86-9.58-161.32-8.48-191.12a97,97,0,0,0-6.12-38.46,103.19,103.19,0,0,0-25.53-38.11c-20.54-19.51-48-30.26-77.43-30.26H282.86c-21.76-.39-42.71-11-56.46-19.74A5.83,5.83,0,0,0,220.12,87c15,9.6,38.05,21.14,62.63,21.58h35c26.39,0,51,9.6,69.4,27.05a91.65,91.65,0,0,1,22.68,33.83,85.19,85.19,0,0,1,5.35,33.86c-1.16,31.59-3.78,138.39,10.6,203.09a226.23,226.23,0,0,1-36.44,33.19A5.83,5.83,0,1,0,396.2,449a240,240,0,0,0,40-36.79l.43-.48A237.54,237.54,0,0,0,494.55,256C494.55,124.46,387.54,17.45,256,17.45Z"/><path class="cls-4" d="M105.71,78.21a5.83,5.83,0,0,0-8.23-.48l-2.26,2a5.83,5.83,0,0,0,7.86,8.61l2.15-1.94A5.83,5.83,0,0,0,105.71,78.21Z"/><path class="cls-4" d="M263.28,150.1a5.79,5.79,0,0,0,3.28-1l1.36-.94a5.83,5.83,0,0,0-6.68-9.55l-1.26.87a5.83,5.83,0,0,0,3.3,10.64Z"/><path class="cls-4" d="M241.87,149.94c-33.86,16.26-66.25,14.19-82.55,11.51a36.27,36.27,0,0,0-30.25,8.79L120,178.43a5.83,5.83,0,0,0,7.79,8.67l9.12-8.19a24.61,24.61,0,0,1,20.56-6c17.65,2.91,52.74,5.14,89.49-12.5a5.83,5.83,0,0,0-5-10.51Z"/><path class="cls-4" d="M118.9,211.94a5.83,5.83,0,0,0-11.65,0v100.4a5.83,5.83,0,1,0,11.65,0Z"/><path class="cls-4" d="M233.7,344.85c-51.65,5-99.49-11.12-100-11.28a5.83,5.83,0,0,0-3.78,11c1.76.61,38.13,12.89,82.9,12.89,7.14,0,14.51-.31,22-1a46,46,0,0,0,20.33-7L272,338.59a5.83,5.83,0,0,0-6.31-9.81l-16.82,10.83A34.41,34.41,0,0,1,233.7,344.85Z"/><path class="cls-4" d="M105.62,186.66a5.83,5.83,0,0,0-.44-8.23l-9.12-8.19a36.22,36.22,0,0,0-30.25-8.79c-.77.13-1.58.26-2.42.38a5.83,5.83,0,1,0,1.68,11.53c.91-.13,1.79-.27,2.64-.41a24.6,24.6,0,0,1,20.56,6l9.12,8.19a5.83,5.83,0,0,0,8.23-.44Z"/><path class="cls-4" d="M91.41,333.57a229.36,229.36,0,0,1-24,6.27,5.83,5.83,0,0,0,1.19,11.53,5.6,5.6,0,0,0,1.21-.13,231.23,231.23,0,0,0,25.41-6.65,5.83,5.83,0,1,0-3.78-11Z"/><path class="cls-4" d="M221,326.61A5.83,5.83,0,1,0,221,315h-4.22a5.83,5.83,0,0,0,0,11.66Z"/><path class="cls-4" d="M113.07,380.27a5.83,5.83,0,0,0-5.82,5.83v29.37a5.83,5.83,0,1,0,11.65,0V386.1A5.83,5.83,0,0,0,113.07,380.27Z"/><path class="cls-4" d="M263.92,382a5.83,5.83,0,0,0-8,1.84c-10.09,16.08-26.8,21-35.86,22.46a5.83,5.83,0,0,0,.94,11.58,6.19,6.19,0,0,0,.95-.08c11-1.8,31.31-7.8,43.84-27.76A5.83,5.83,0,0,0,263.92,382Z"/><path class="cls-4" d="M255.78,419.66a5.83,5.83,0,0,0-7.92,2.26,36.48,36.48,0,0,1-18.78,16.17,5.82,5.82,0,0,0,2.19,11.22,5.62,5.62,0,0,0,2.19-.43,48.42,48.42,0,0,0,24.59-21.29A5.83,5.83,0,0,0,255.78,419.66Z"/><path class="cls-4" d="M153,384.12c-6.17-9-13.87-15.15-22.9-18.24a5.83,5.83,0,1,0-3.77,11c6.6,2.25,12.33,6.89,17,13.79a49.33,49.33,0,0,0,16.19,15.18,5.83,5.83,0,1,0,5.75-10.14A37.56,37.56,0,0,1,153,384.12Z"/></svg>